<?xml version="1.0" standalone="no"?>
<!DOCTYPE svg PUBLIC "-//W3C//DTD SVG 20010904//EN"
 "http://www.w3.org/TR/2001/REC-SVG-20010904/DTD/svg10.dtd">
<svg version="1.0" xmlns="http://www.w3.org/2000/svg"
 width="120.000000pt" height="120.000000pt" viewBox="0 0 120.000000 120.000000"
 preserveAspectRatio="xMidYMid meet">

<g transform="translate(0.000000,120.000000) scale(0.100000,-0.100000)"
fill="#cccccc" stroke="none">
<path d="M303 955 c-71 -75 40 -183 112 -110 33 32 33 78 0 110 -32 33 -82 33
-112 0z"/>
<path d="M523 955 c-31 -33 -30 -79 2 -110 24 -24 27 -25 185 -25 158 0 161 1
185 25 16 15 25 36 25 55 0 19 -9 40 -25 55 -24 25 -27 25 -187 24 -159 0
-164 -1 -185 -24z"/>
<path d="M543 695 c-13 -13 -23 -31 -23 -40 0 -8 -4 -15 -10 -15 -5 0 -10 -9
-10 -20 0 -11 -4 -20 -10 -20 -5 0 -10 -9 -10 -20 0 -11 -4 -20 -10 -20 -5 0
-10 -13 -10 -30 0 -16 -4 -30 -10 -30 -5 0 -10 -9 -10 -20 0 -11 -4 -20 -10
-20 -5 0 -10 -9 -10 -20 0 -11 -4 -20 -10 -20 -5 0 -10 -9 -10 -20 0 -11 -4
-20 -10 -20 -5 0 -10 -9 -10 -20 0 -11 -4 -20 -10 -20 -15 0 -12 -70 4 -86 23
-22 66 -18 66 6 0 11 5 20 10 20 6 0 10 7 10 16 0 34 26 44 120 44 94 0 120
-10 120 -44 0 -9 5 -16 10 -16 6 0 10 -9 10 -20 0 -24 43 -28 66 -6 16 16 19
86 4 86 -5 0 -10 9 -10 20 0 11 -4 20 -10 20 -5 0 -10 9 -10 20 0 11 -4 20
-10 20 -5 0 -10 9 -10 20 0 11 -4 20 -10 20 -5 0 -10 14 -10 30 0 17 -4 30
-10 30 -5 0 -10 9 -10 20 0 11 -4 20 -10 20 -5 0 -10 9 -10 20 0 11 -4 20 -10
20 -5 0 -10 9 -10 20 0 11 -4 20 -10 20 -5 0 -10 7 -10 15 0 20 -44 65 -62 64
-7 0 -23 -11 -35 -24z m57 -175 c0 -11 5 -20 10 -20 6 0 10 -9 10 -20 0 -11 5
-20 10 -20 6 0 10 -13 10 -30 l0 -30 -60 0 c-53 0 -60 2 -60 20 0 11 5 20 10
20 6 0 10 14 10 30 0 17 5 30 10 30 6 0 10 9 10 20 0 13 7 20 20 20 13 0 20
-7 20 -20z"/>
</g>
</svg>
